<svg id="Icon_Assembly" xmlns="http://www.w3.org/2000/svg" width="48" height="48" viewBox="0 0 48 48">
  <path id="Path_265" data-name="Path 265" d="M0,0H48V48H0Z" fill="none"/>
  <path id="build_FILL0_wght400_GRAD0_opsz48" d="M33.242,39.152,21.229,27.046a18.442,18.442,0,0,1-2.142.605,10.272,10.272,0,0,1-2.188.233,10.5,10.5,0,0,1-7.683-3.143A10.384,10.384,0,0,1,6.05,17.082a10.816,10.816,0,0,1,1.443-5.4l6.751,6.751,4.284-4L11.591,7.49A11.68,11.68,0,0,1,14.152,6.4,9.718,9.718,0,0,1,16.9,6a10.684,10.684,0,0,1,7.846,3.236,10.684,10.684,0,0,1,3.236,7.846,10.272,10.272,0,0,1-.233,2.188,18.442,18.442,0,0,1-.605,2.142L39.2,33.425a1.742,1.742,0,0,1,0,2.468l-3.539,3.259a1.687,1.687,0,0,1-2.421,0Zm1.3-2.654,1.862-1.862L23.7,21.924a6.784,6.784,0,0,0,1.117-2.3,9.387,9.387,0,0,0,.372-2.538A7.8,7.8,0,0,0,22.6,11.168,8.564,8.564,0,0,0,16.713,8.7l4.7,4.8a1.462,1.462,0,0,1,0,2.049l-6.146,5.774a1.462,1.462,0,0,1-2.049,0L8.7,16.849a8.371,8.371,0,0,0,2.538,5.913A7.853,7.853,0,0,0,16.9,25.09a8.993,8.993,0,0,0,2.468-.372A6.808,6.808,0,0,0,21.648,23.6ZM22.579,22.576Z" transform="translate(1.949 1.168)" fill="#456D7D"/>
</svg>
