<svg xmlns="http://www.w3.org/2000/svg" width="30.084" height="31.895" viewBox="0 0 30.084 31.895">
  <g id="Catalogue" transform="translate(-1.682 -1)">
    <path id="Path_298" data-name="Path 298" d="M1.682,25.957V28.2A4.7,4.7,0,0,0,6.373,32.9H26.64a1.328,1.328,0,0,0,1.329-1.329V27.325h2.467A1.328,1.328,0,0,0,31.765,26V2.877a1.328,1.328,0,0,0-1.329-1.329H13.722a5.264,5.264,0,0,0-3.558,1.4A4.6,4.6,0,0,0,6.373,1,4.7,4.7,0,0,0,1.682,5.7Zm23.63,4.28H6.373A2.039,2.039,0,0,1,4.34,28.2V25.957A2.04,2.04,0,1,1,8.42,26a1.328,1.328,0,0,0,1.329,1.329H25.311ZM13.722,4.206H29.107V24.667H11.078V6.849A2.647,2.647,0,0,1,13.722,4.206ZM4.34,5.7a2.04,2.04,0,1,1,4.08,0V21.733a4.786,4.786,0,0,0-4.08,0Z" transform="translate(0 0)" fill="#1b9ebb"/>
    <path id="Path_299" data-name="Path 299" d="M12.081,17.467h5.028a1.329,1.329,0,1,0,0-2.658H12.081a1.329,1.329,0,0,0,0,2.658Z" transform="translate(2.984 4.543)" fill="#1b9ebb"/>
    <path id="Path_300" data-name="Path 300" d="M12.081,8.07H22.137a1.329,1.329,0,1,0,0-2.658H12.081a1.329,1.329,0,0,0,0,2.658Z" transform="translate(2.984 1.451)" fill="#1b9ebb"/>
    <path id="Path_301" data-name="Path 301" d="M12.081,12.768H22.137a1.329,1.329,0,1,0,0-2.658H12.081a1.329,1.329,0,0,0,0,2.658Z" transform="translate(2.984 2.997)" fill="#1b9ebb"/>
  </g>
</svg>
