<svg xmlns="http://www.w3.org/2000/svg" width="39.998" height="39.998" viewBox="0 0 39.998 39.998">
  <g id="discount" transform="translate(-0.001 0)">
    <g id="Group_379" data-name="Group 379" transform="translate(0.001 0.001)">
      <g id="Group_378" data-name="Group 378" transform="translate(0 0)">
        <path id="Path_287" data-name="Path 287" d="M39.656.344A1.172,1.172,0,0,0,38,.344L34.585,3.757a3.524,3.524,0,0,0-.662-.238L23.316.9a3.533,3.533,0,0,0-3.338.925L1.029,20.74a3.52,3.52,0,0,0,0,4.972L14.287,38.97a3.52,3.52,0,0,0,4.972,0L38.177,20.021a3.533,3.533,0,0,0,.925-3.339L36.481,6.076a3.531,3.531,0,0,0-.238-.662L39.656,2A1.172,1.172,0,0,0,39.656.344ZM36.827,17.251a1.178,1.178,0,0,1-.308,1.113L17.6,37.313a1.173,1.173,0,0,1-1.657,0L2.686,24.055a1.173,1.173,0,0,1,0-1.657L21.635,3.48a1.178,1.178,0,0,1,.831-.343,1.162,1.162,0,0,1,.282.035l9.963,2.459L29.889,8.453a3.516,3.516,0,1,0,1.657,1.657l2.822-2.822Zm-7.625-4.8a1.171,1.171,0,1,1,0-1.657h0A1.173,1.173,0,0,1,29.2,12.454Z" transform="translate(-0.001 -0.001)" fill="#456D7D"/>
      </g>
    </g>
    <g id="Group_381" data-name="Group 381" transform="translate(13.259 13.083)">
      <g id="Group_380" data-name="Group 380">
        <path id="Path_288" data-name="Path 288" d="M175.712,168.5a3.516,3.516,0,1,0,0,4.972A3.52,3.52,0,0,0,175.712,168.5Zm-1.657,3.314a1.172,1.172,0,1,1,0-1.657A1.173,1.173,0,0,1,174.055,171.813Z" transform="translate(-169.712 -167.47)" fill="#61AC46"/>
      </g>
    </g>
    <g id="Group_383" data-name="Group 383" transform="translate(14.916 24.682)">
      <g id="Group_382" data-name="Group 382">
        <path id="Path_289" data-name="Path 289" d="M196.926,316.967a3.516,3.516,0,1,0,0,4.972A3.514,3.514,0,0,0,196.926,316.967Zm-1.657,3.315a1.172,1.172,0,1,1,0-1.657A1.171,1.171,0,0,1,195.268,320.282Z" transform="translate(-190.926 -315.937)" fill="#61AC46"/>
      </g>
    </g>
    <g id="Group_385" data-name="Group 385" transform="translate(8.972 20.397)">
      <g id="Group_384" data-name="Group 384">
        <path id="Path_290" data-name="Path 290" d="M132.087,262.134a1.172,1.172,0,0,0-1.294-1.035l-14.915,1.657a1.172,1.172,0,0,0,.128,2.337,1.192,1.192,0,0,0,.131-.007l14.915-1.657A1.172,1.172,0,0,0,132.087,262.134Z" transform="translate(-114.835 -261.091)" fill="#61AC46"/>
      </g>
    </g>
  </g>
</svg>
