<svg id="Icon_Linkedin" xmlns="http://www.w3.org/2000/svg" width="50" height="50" viewBox="0 0 50 50">
  <rect id="Rectangle_102" data-name="Rectangle 102" width="50" height="50" fill="none"/>
  <path id="Subtraction_1" data-name="Subtraction 1" d="M18,36A18,18,0,0,1,5.273,5.272,18,18,0,0,1,30.729,30.728,17.888,17.888,0,0,1,18,36Zm1.334-21.985H14.767c.063,1.266,0,13.606,0,13.725h4.568V20.073a2.926,2.926,0,0,1,.154-1.11,2.487,2.487,0,0,1,2.339-1.669c1.511,0,2.309,1.074,2.309,3.1v7.342H28.7v-7.87A6.674,6.674,0,0,0,27.2,15.2a4.932,4.932,0,0,0-3.751-1.509,4.509,4.509,0,0,0-4.116,2.274Zm-11.652,0V27.739h4.563V14.015ZM10,7.4a2.379,2.379,0,1,0-.062,4.744h.035A2.379,2.379,0,1,0,10,7.4Z" transform="translate(7 7.001)" fill="#fff"/>
</svg>
