<svg id="Icon_Basket" xmlns="http://www.w3.org/2000/svg" width="48" height="48" viewBox="0 0 48 48">
  <path id="Path_76" data-name="Path 76" d="M32.3,11.329H29.883L23.573,0,20.622,1.73l5.346,9.6H8.028l5.348-9.6L10.423,0,4.114,11.329H1.7A1.724,1.724,0,0,0,0,13.076a1.788,1.788,0,0,0,.059.455l4.758,17.9A3.423,3.423,0,0,0,8.1,34H25.9a3.425,3.425,0,0,0,3.281-2.572l4.758-17.9a1.744,1.744,0,0,0-1.186-2.138,1.689,1.689,0,0,0-.456-.063M25.9,30.512v0H8.1l-4.171-15.7H30.07Z" transform="translate(7 6.68)" fill="#456D7D"/>
  <path id="Path_77" data-name="Path 77" d="M7,10.5h3.5v8.967H7Zm6.992,0h3.5v8.967h-3.5Z" transform="translate(11.754 14.31)" fill="#61AC46"/>
  <rect id="Rectangle_88" data-name="Rectangle 88" width="48" height="48" fill="none"/>
</svg>
