<svg id="Icon_Guarantee" xmlns="http://www.w3.org/2000/svg" width="48" height="48" viewBox="0 0 48 48">
  <path id="Path_269" data-name="Path 269" d="M0,0H48V48H0Z" fill="none"/>
  <path id="thumb_up_FILL0_wght400_GRAD0_opsz48" d="M26.754,30.64H10.859V12.31L20.812,2l1.4,1.11a1.076,1.076,0,0,1,.322.5,2.512,2.512,0,0,1,.107.788v.358L21.026,12.31h10.7a2.2,2.2,0,0,1,2.148,2.148v2.936a2.645,2.645,0,0,0,.054.519.86.86,0,0,1-.054.519L29.368,28.814A3.108,3.108,0,0,1,28.312,30.1,2.593,2.593,0,0,1,26.754,30.64ZM13.007,28.492H27.22l4.511-10.7V14.458H18.377l1.9-8.914-7.267,7.661Zm0-15.286v0Zm-2.148-.895v2.148H6.1V28.492h4.761V30.64H3.95V12.31Z" transform="translate(5.05 8)" fill="#456D7D"/>
</svg>
