<svg id="Icon_phone" xmlns="http://www.w3.org/2000/svg" width="40" height="40" viewBox="0 0 40 40">
  <path id="Path_237" data-name="Path 237" d="M9.209,2.5a3.323,3.323,0,0,1,2.585,1.285,22.2,22.2,0,0,1,1.969,2.99l.421.7a4.393,4.393,0,0,1,.619,3.45,3.346,3.346,0,0,1-1.756,2.058,10.661,10.661,0,0,1-1.3.516,7.693,7.693,0,0,0-.949.372,2.566,2.566,0,0,0,.237.423,22.272,22.272,0,0,0,6.235,6.446,4.567,4.567,0,0,0,1,.386c.037-.167.073-.358.109-.545a7.279,7.279,0,0,1,.488-1.768,2.888,2.888,0,0,1,2.668-1.785,4.808,4.808,0,0,1,2.138.588,13.929,13.929,0,0,1,4.658,4.118,3.528,3.528,0,0,1,.6,3.649,7.653,7.653,0,0,1-1.812,2.355A6.424,6.424,0,0,1,22.6,29.6a6.05,6.05,0,0,1-1.917-.309,24.4,24.4,0,0,1-4.552-2.139,35.194,35.194,0,0,1-6.537-5.018A27.836,27.836,0,0,1,3.02,11.617c-.627-2.016-.879-3.082.231-5.3a7.464,7.464,0,0,1,2.425-2.5A6.876,6.876,0,0,1,9.209,2.5Zm9.286,21.165a5.411,5.411,0,0,1-2.351-.685c-1.457-.733-4.651-3.479-7.194-7.295a3.12,3.12,0,0,1-.587-2.637c.392-1.161,1.6-1.576,2.567-1.909a8.7,8.7,0,0,0,1-.388.844.844,0,0,0,.474-.521,2,2,0,0,0-.362-1.465l-.424-.709C10.162,5.618,9.736,5,9.209,5a4.444,4.444,0,0,0-2.126.876,5.226,5.226,0,0,0-1.6,1.556c-.69,1.381-.62,1.707-.081,3.441a25.5,25.5,0,0,0,5.919,9.465A28.3,28.3,0,0,0,21.47,26.921,3.554,3.554,0,0,0,22.6,27.1a3.96,3.96,0,0,0,2.747-1.128c1.489-1.489,1.626-1.873.977-2.738a11.389,11.389,0,0,0-3.776-3.38,2.435,2.435,0,0,0-1.019-.324c-.115,0-.235,0-.42.38a6.337,6.337,0,0,0-.28,1.141,9.537,9.537,0,0,1-.283,1.207A2.047,2.047,0,0,1,18.495,23.665Z" transform="translate(3.764 3.758)" fill="#456D7D"/>
  <rect id="Rectangle_98" data-name="Rectangle 98" width="40" height="40" fill="none"/>
</svg>
