<svg id="Icon_Certified" xmlns="http://www.w3.org/2000/svg" width="48" height="48" viewBox="0 0 48 48">
  <path id="Path_267" data-name="Path 267" d="M0,0H48V48H0Z" fill="none"/>
  <path id="verified_FILL0_wght400_GRAD0_opsz48" d="M13.823,35.455l-2.936-5.023-5.834-1.2.657-5.68L2,19.227l3.709-4.289-.657-5.68,5.834-1.2L13.823,3,19,5.4,24.177,3l2.975,5.061,5.8,1.2-.657,5.68L36,19.227l-3.709,4.327.657,5.68-5.8,1.2-2.975,5.023L19,33.059ZM14.866,32.4,19,30.664,23.25,32.4l2.589-3.864,4.52-1.159-.464-4.6,3.13-3.555L29.9,15.6l.464-4.6-4.52-1.082L23.173,6.052,19,7.791,14.75,6.052,12.161,9.916,7.641,11,8.1,15.6l-3.13,3.632L8.1,22.782l-.464,4.675,4.52,1.082ZM19,19.227Zm-1.661,5.139,8.77-8.693L24.37,14.089l-7.032,6.955-3.67-3.825-1.777,1.739Z" transform="translate(5 5)" fill="#456D7D"/>
</svg>
