<svg id="Icon_user" xmlns="http://www.w3.org/2000/svg" width="48" height="48" viewBox="0 0 48 48">
  <path id="Union_1" data-name="Union 1" d="M2857.352,161.791c0-.047.266-5.256-2.979-8.689-1.956-2.068-4.85-3.124-8.6-3.138h-.073c-5.161,0-8.906,1.994-11.132,5.93a15.324,15.324,0,0,0-1.876,6.079l-3.294-.155a18.623,18.623,0,0,1,2.295-7.532,14.365,14.365,0,0,1,7.094-6.341,11,11,0,1,1,12.919-.332,12.562,12.562,0,0,1,5.1,3.267c4.217,4.485,3.862,10.851,3.844,11.12Zm-20.035-22.857a7.7,7.7,0,1,0,7.7-7.654A7.684,7.684,0,0,0,2837.317,138.934Z" transform="translate(-2821.027 -121)" fill="#456D7D"/>
  <rect id="Rectangle_87" data-name="Rectangle 87" width="48" height="48" fill="none"/>
</svg>
