<svg id="Icon_address" xmlns="http://www.w3.org/2000/svg" width="40" height="40" viewBox="0 0 40 40">
  <path id="Path_237" data-name="Path 237" d="M19.316,33.717a4.13,4.13,0,0,1-2.929-1.209c-1.87-1.87-4.691-4.691-6.133-6.14A12.808,12.808,0,1,1,28.371,8.257a12.8,12.8,0,0,1,0,18.111c-.677.681-1.73,1.734-2.845,2.848-1.137,1.137-2.313,2.313-3.284,3.287A4.112,4.112,0,0,1,19.316,33.717ZM19.313,7a10.308,10.308,0,0,0-7.29,17.6c1.442,1.45,4.262,4.27,6.129,6.136a1.646,1.646,0,0,0,2.322,0c.971-.974,2.147-2.151,3.285-3.289,1.114-1.114,2.166-2.166,2.84-2.844l0,0A10.31,10.31,0,0,0,19.313,7Z" transform="translate(0.687 0.89)" fill="#456D7D"/>
  <path id="Path_238" data-name="Path 238" d="M22.086,25.672a5.586,5.586,0,1,1,5.586-5.586A5.592,5.592,0,0,1,22.086,25.672Zm0-8.672a3.086,3.086,0,1,0,3.086,3.086A3.089,3.089,0,0,0,22.086,17Z" transform="translate(-2.086 -1.883)" fill="#61AC46"/>
  <rect id="Rectangle_100" data-name="Rectangle 100" width="40" height="40" fill="none"/>
</svg>
