<svg id="Icon_MadetoOrder" xmlns="http://www.w3.org/2000/svg" width="41" height="41" viewBox="0 0 41 41">
  <rect id="Rectangle_242" data-name="Rectangle 242" width="41" height="41" fill="none"/>
  <path id="design_services_FILL0_wght400_GRAD0_opsz48" d="M5.962,32.759V26.934L13.2,19.689,6.521,12.968a2.264,2.264,0,0,1-.5-.747,2.095,2.095,0,0,1,0-1.643,2.264,2.264,0,0,1,.5-.747l3.356-3.4a2.261,2.261,0,0,1,.746-.5,2.15,2.15,0,0,1,.82-.168,2.291,2.291,0,0,1,.839.168,2.212,2.212,0,0,1,.764.5l6.712,6.721L27.105,5.8a.912.912,0,0,1,.373-.243,1.53,1.53,0,0,1,.82,0,.912.912,0,0,1,.373.243l4.214,4.219a.913.913,0,0,1,.242.373,1.536,1.536,0,0,1,0,.821.913.913,0,0,1-.242.373l-7.346,7.356,6.712,6.721a2.215,2.215,0,0,1,.5.765,2.3,2.3,0,0,1,.168.84,2.158,2.158,0,0,1-.168.821,2.264,2.264,0,0,1-.5.747L28.9,32.161a2.261,2.261,0,0,1-.746.5,2.087,2.087,0,0,1-1.641,0,2.261,2.261,0,0,1-.746-.5l-6.712-6.684-7.271,7.281ZM14.8,18.084l3.356-3.361L15.433,12l-1.79,1.792-1.566-1.568,1.79-1.792-2.387-2.39L8.125,11.4ZM27.254,30.593l3.356-3.361-2.387-2.39-1.79,1.792-1.566-1.568,1.79-1.792-2.722-2.726-3.356,3.361ZM8.2,30.518h2.61l15.475-15.5-2.61-2.614L8.2,27.9ZM27.851,13.454l2.61-2.614-2.61-2.614-2.61,2.614Z" transform="translate(0.984 1.333)" fill="#ffffff"/>
</svg>
