<svg xmlns="http://www.w3.org/2000/svg" width="16" height="14.769" viewBox="0 0 16 14.769">
  <g id="Icon_ionic-ios-calendar" data-name="Icon ionic-ios-calendar" transform="translate(-3.375 -4.5)">
    <path id="Path_284" data-name="Path 284" d="M17.837,6.75H16.3v.914a.307.307,0,0,1-.308.3h-.615a.307.307,0,0,1-.308-.3V6.75H7.683v.914a.307.307,0,0,1-.308.3H6.76a.307.307,0,0,1-.308-.3V6.75H4.913A1.536,1.536,0,0,0,3.375,8.274V18.638a1.536,1.536,0,0,0,1.538,1.524H17.837a1.536,1.536,0,0,0,1.538-1.524V8.274A1.536,1.536,0,0,0,17.837,6.75Zm.308,11.431a.768.768,0,0,1-.769.762h-12a.768.768,0,0,1-.769-.762V11.322a.307.307,0,0,1,.308-.3H17.837a.307.307,0,0,1,.308.3Z" transform="translate(0 -0.893)" fill="#456D7D"/>
    <path id="Path_285" data-name="Path 285" d="M10.357,4.839a.34.34,0,0,0-.339-.339H9.339A.34.34,0,0,0,9,4.839V5.857h1.357Z" transform="translate(-2.574)" fill="#61AC46"/>
    <path id="Path_286" data-name="Path 286" d="M26.107,4.839a.34.34,0,0,0-.339-.339h-.679a.34.34,0,0,0-.339.339V5.857h1.357Z" transform="translate(-9.783)" fill="#61AC46"/>
  </g>
</svg>
