<svg id="Icon_Youtube" xmlns="http://www.w3.org/2000/svg" width="50" height="50" viewBox="0 0 50 50">
  <rect id="Rectangle_102" data-name="Rectangle 102" width="50" height="50" fill="none"/>
  <path id="Subtraction_1" data-name="Subtraction 1" d="M18,36A18,18,0,0,1,5.273,5.272,18,18,0,0,1,30.729,30.728,17.888,17.888,0,0,1,18,36Zm0-25.917c-.07,0-7.047.006-8.776.474a2.845,2.845,0,0,0-1.989,2A29.737,29.737,0,0,0,6.766,18a29.7,29.7,0,0,0,.47,5.441,2.8,2.8,0,0,0,1.989,2c1.729.469,8.706.475,8.776.475s7.047-.006,8.775-.475a2.831,2.831,0,0,0,1.989-2A29.638,29.638,0,0,0,29.236,18a29.676,29.676,0,0,0-.471-5.446,2.843,2.843,0,0,0-1.989-2C25.048,10.089,18.071,10.083,18,10.083ZM15.7,21.342V14.657L21.576,18,15.7,21.341Z" transform="translate(7 7.001)" fill="#fff"/>
</svg>
