<svg id="Icon_Delivery" xmlns="http://www.w3.org/2000/svg" width="32" height="32" viewBox="0 0 32 32">
  <path id="Path_264" data-name="Path 264" d="M0,0H32V32H0Z" fill="none"/>
  <path id="local_shipping_FILL0_wght400_GRAD0_opsz48" d="M7.277,26.326a3.378,3.378,0,0,1-3.384-3.384H2V9.721a1.651,1.651,0,0,1,.516-1.2A1.651,1.651,0,0,1,3.721,8H20.326v4.79h3.011l3.9,5.191v4.962H25.2a3.387,3.387,0,0,1-5.779,2.395,3.262,3.262,0,0,1-.989-2.395H10.661a3.378,3.378,0,0,1-3.384,3.384Zm0-1.721A1.663,1.663,0,1,0,6.1,21.766a1.663,1.663,0,0,0,1.176,2.839ZM3.721,21.221h.631a3.8,3.8,0,0,1,1.233-1.233A3.227,3.227,0,0,1,8.926,20a4,4,0,0,1,1.248,1.219h8.432V9.721H3.721Zm18.1,3.384a1.665,1.665,0,1,0-1.176-.488A1.6,1.6,0,0,0,21.818,24.606Zm-1.491-5.851h5.334L22.477,14.51H20.326ZM11.178,15.772Z" transform="translate(1.38 -1.01)" fill="#456D7D"/>
</svg>
