<svg id="Icon_email" xmlns="http://www.w3.org/2000/svg" width="40" height="40" viewBox="0 0 40 40">
  <path id="Path_237" data-name="Path 237" d="M29.759,29.292H2.75a1.25,1.25,0,0,1-1.25-1.25V8.764A1.249,1.249,0,0,1,2.672,7.5c.032,0,.063,0,.095,0H29.742q.048,0,.1,0a1.249,1.249,0,0,1,1.171,1.262V28.042A1.25,1.25,0,0,1,29.759,29.292ZM4,26.792H28.509V11.179L16.981,19.413a1.25,1.25,0,0,1-1.453,0L4,11.179ZM6.651,10l9.6,6.86,9.6-6.86Z" transform="translate(3.746 1.604)" fill="#456D7D"/>
  <rect id="Rectangle_99" data-name="Rectangle 99" width="40" height="40" fill="none"/>
</svg>
