<svg id="Icon_Twitter" xmlns="http://www.w3.org/2000/svg" width="50" height="50" viewBox="0 0 50 50">
  <rect id="Rectangle_102" data-name="Rectangle 102" width="50" height="50" fill="none"/>
  <path id="Subtraction_1" data-name="Subtraction 1" d="M18,36A18,18,0,0,1,5.273,5.272,18,18,0,0,1,30.729,30.728,17.888,17.888,0,0,1,18,36ZM7.087,25.643h0a12.693,12.693,0,0,0,6.872,2.011A12.911,12.911,0,0,0,19.423,26.5a12.023,12.023,0,0,0,3.99-2.99,13.152,13.152,0,0,0,3.278-8.57c0-.188,0-.386-.011-.574a9.034,9.034,0,0,0,2.235-2.32l-.043-.019a9.169,9.169,0,0,1-2.566.705,4.521,4.521,0,0,0,1.966-2.479,9.2,9.2,0,0,1-2.845,1.079A4.477,4.477,0,0,0,17.8,15.405a12.712,12.712,0,0,1-9.223-4.668,4.4,4.4,0,0,0-.605,2.256A4.5,4.5,0,0,0,9.96,16.721a4.451,4.451,0,0,1-2.023-.563v.055a4.5,4.5,0,0,0,3.589,4.394,4.578,4.578,0,0,1-2.012.076A4.479,4.479,0,0,0,13.7,23.789,9.017,9.017,0,0,1,8.167,25.7H8.148A8.589,8.589,0,0,1,7.087,25.643Z" transform="translate(7 7.001)" fill="#fff"/>
</svg>
