<svg id="Icon_Stock" xmlns="http://www.w3.org/2000/svg" width="48" height="48" viewBox="0 0 48 48">
  <path id="Path_268" data-name="Path 268" d="M0,0H48V48H0Z" fill="none"/>
  <path id="package_FILL0_wght400_GRAD0_opsz48" d="M16.833,18.167,21,16.083l4.167,2.083V8.5H16.833ZM12.667,29.333V26H21v3.333ZM8.5,36a2.4,2.4,0,0,1-1.75-.75A2.4,2.4,0,0,1,6,33.5V8.5a2.4,2.4,0,0,1,.75-1.75A2.4,2.4,0,0,1,8.5,6h25a2.4,2.4,0,0,1,1.75.75A2.4,2.4,0,0,1,36,8.5v25A2.563,2.563,0,0,1,33.5,36Zm0-27.5v0Zm0,25h25V8.5H27.667V22.208L21,18.875l-6.667,3.333V8.5H8.5Z" transform="translate(3 3)" fill="#456D7D"/>
</svg>
