<svg id="LOGO" xmlns="http://www.w3.org/2000/svg" width="122" height="68" viewBox="0 0 122 68">
  <g id="Group_277" data-name="Group 277">
    <path id="Path_248" data-name="Path 248" d="M244.2,230.855q-11.477,0-17.489-5.621T220.7,209.185q0-10.789,6.224-16.622c4.129-3.9,10.2-5.863,18.157-5.863a52.717,52.717,0,0,1,7.257.453,37.511,37.511,0,0,1,6.1,1.39v10.7a26.338,26.338,0,0,0-6.073-1.541,49.611,49.611,0,0,0-6.407-.393c-4.129,0-7.257.937-9.322,2.78-2.065,1.874-3.1,4.866-3.1,9.036,0,3.9.911,6.709,2.7,8.432s4.463,2.6,7.986,2.6a22.59,22.59,0,0,0,3.279-.242,20.184,20.184,0,0,0,2.885-.635V214.9h-8.562v-9.58h19.038v21.548a25.838,25.838,0,0,1-6.589,2.72A33.8,33.8,0,0,1,244.2,230.855Z" transform="translate(-220.7 -186.7)" fill="#fff"/>
    <path id="Path_249" data-name="Path 249" d="M368.3,231.725V188.9h22.165a16.522,16.522,0,0,1,8.714,2.085,12.672,12.672,0,0,1,5.1,5.682,18.5,18.5,0,0,1,1.67,7.979,16.25,16.25,0,0,1-1.943,8.039,14.109,14.109,0,0,1-5.465,5.531,16.724,16.724,0,0,1-8.35,1.995H380.84v11.515H368.3Zm12.54-21.065h6.5A5.391,5.391,0,0,0,391.71,209a6.3,6.3,0,0,0,1.427-4.322,7.137,7.137,0,0,0-1.336-4.533,4.952,4.952,0,0,0-4.129-1.662h-6.8v12.18Z" transform="translate(-323.484 -188.235)" fill="#fff"/>
    <path id="Path_250" data-name="Path 250" d="M522.957,230.855c-7.8,0-13.724-1.9-17.823-5.712S499,215.955,499,208.974q0-10.789,6.012-16.531,6.012-5.757,17.914-5.742a38.791,38.791,0,0,1,7.135.6,38.221,38.221,0,0,1,6.012,1.662v10.91a30.054,30.054,0,0,0-12.3-2.539c-4.038,0-7.044.907-9.018,2.75s-2.945,4.805-2.945,8.885q0,5.984,3.1,8.613c2.065,1.753,5.071,2.629,8.988,2.629a32.994,32.994,0,0,0,6.255-.6,30.263,30.263,0,0,0,6.042-1.874v10.971a41.067,41.067,0,0,1-6.042,1.572A39.89,39.89,0,0,1,522.957,230.855Z" transform="translate(-414.499 -186.7)" fill="#fff"/>
  </g>
  <g id="Group_278" data-name="Group 278" transform="translate(2.278 47.932)">
    <path id="Path_251" data-name="Path 251" d="M228.2,367.338V348.6h2.156v18.738Z" transform="translate(-228.2 -347.603)" fill="#1b9ebc"/>
    <path id="Path_252" data-name="Path 252" d="M252,376.688V362.332h1.549l.182,2.267h.182a4.894,4.894,0,0,1,1.366-1.541,5.711,5.711,0,0,1,1.67-.816,7.891,7.891,0,0,1,1.913-.242,5.955,5.955,0,0,1,2.4.453,3.4,3.4,0,0,1,1.609,1.451,5.454,5.454,0,0,1,.577,2.75v10.034h-1.974v-9.852a4.316,4.316,0,0,0-.243-1.541,2.02,2.02,0,0,0-.7-.937,2.5,2.5,0,0,0-1.032-.484,5.737,5.737,0,0,0-1.306-.151,4.135,4.135,0,0,0-2.065.544,4.194,4.194,0,0,0-1.579,1.511,4.573,4.573,0,0,0-.607,2.388v8.492H252Z" transform="translate(-244.774 -356.953)" fill="#1b9ebc"/>
    <path id="Path_253" data-name="Path 253" d="M307.208,365.367a5.851,5.851,0,0,1-3.067-.786,5,5,0,0,1-1.974-2.478,11.779,11.779,0,0,1-.668-4.382,10.869,10.869,0,0,1,.7-4.171,5.111,5.111,0,0,1,1.974-2.418,5.707,5.707,0,0,1,3.006-.786,6.7,6.7,0,0,1,1.761.212,4.267,4.267,0,0,1,2.642,1.964h.152V345.3h1.974v19.735h-1.549l-.213-2.116h-.182a5.01,5.01,0,0,1-1.974,1.844A5.883,5.883,0,0,1,307.208,365.367Zm.334-1.723a3.888,3.888,0,0,0,2.4-.665,3.618,3.618,0,0,0,1.336-1.874,9.468,9.468,0,0,0,.425-2.992V357.6a10.092,10.092,0,0,0-.334-2.78,4.275,4.275,0,0,0-.941-1.692,3.594,3.594,0,0,0-1.306-.846,4.907,4.907,0,0,0-1.457-.242,4.108,4.108,0,0,0-2.277.574,3.381,3.381,0,0,0-1.366,1.753,9.065,9.065,0,0,0-.456,3.143v.7a8.365,8.365,0,0,0,.486,3.2,3.3,3.3,0,0,0,1.4,1.692A4.007,4.007,0,0,0,307.542,363.645Z" transform="translate(-279.244 -345.3)" fill="#1b9ebc"/>
    <path id="Path_254" data-name="Path 254" d="M360.785,377.718a4.98,4.98,0,0,1-3.31-1.027,4.455,4.455,0,0,1-1.275-3.627V363.03h1.974v9.822a4.316,4.316,0,0,0,.243,1.541,2.019,2.019,0,0,0,.7.937,2.5,2.5,0,0,0,1.032.484,5.673,5.673,0,0,0,1.275.151,4.134,4.134,0,0,0,2.065-.544,4.277,4.277,0,0,0,1.579-1.541,4.573,4.573,0,0,0,.607-2.388V363h1.974v14.356H366.1l-.213-2.267H365.7a4.895,4.895,0,0,1-1.366,1.541,5.936,5.936,0,0,1-1.64.816A6.65,6.65,0,0,1,360.785,377.718Z" transform="translate(-317.335 -357.651)" fill="#1b9ebc"/>
    <path id="Path_255" data-name="Path 255" d="M411.4,377.02a10.55,10.55,0,0,1-2.52-.272,5.076,5.076,0,0,1-1.822-.846,3.406,3.406,0,0,1-1.093-1.36,4.344,4.344,0,0,1-.364-1.844v-.242a.663.663,0,0,1,.03-.242h1.943a.748.748,0,0,0-.03.242v.181a2.713,2.713,0,0,0,.516,1.662,2.808,2.808,0,0,0,1.4.846,8.672,8.672,0,0,0,2.1.242,5.761,5.761,0,0,0,1.822-.272,2.568,2.568,0,0,0,1.275-.846,1.9,1.9,0,0,0,.486-1.33,2,2,0,0,0-.607-1.541,5,5,0,0,0-1.609-.816c-.668-.212-1.336-.393-2.065-.6q-.865-.227-1.731-.544a6.082,6.082,0,0,1-1.549-.725,3.6,3.6,0,0,1-1.123-1.118,3.291,3.291,0,0,1-.425-1.723,3.3,3.3,0,0,1,1.427-2.811,5.2,5.2,0,0,1,1.7-.786A8.949,8.949,0,0,1,411.46,362a8.126,8.126,0,0,1,2.429.332,4.682,4.682,0,0,1,1.64.876,3.475,3.475,0,0,1,.941,1.269,3.364,3.364,0,0,1,.3,1.451v.483H414.83v-.363a2.433,2.433,0,0,0-.273-1.118,2.328,2.328,0,0,0-1-.937,4.975,4.975,0,0,0-2.156-.393,6.537,6.537,0,0,0-1.457.151,2.946,2.946,0,0,0-1.032.423,1.908,1.908,0,0,0-.638.665,1.818,1.818,0,0,0-.213.907,1.5,1.5,0,0,0,.516,1.209,4.244,4.244,0,0,0,1.336.7c.547.181,1.123.363,1.761.574.607.181,1.245.363,1.913.574a13.819,13.819,0,0,1,1.791.725,3.451,3.451,0,0,1,1.306,1.148,3.286,3.286,0,0,1,.486,1.9,4.42,4.42,0,0,1-.425,1.934,4.119,4.119,0,0,1-1.214,1.39,5.575,5.575,0,0,1-1.822.816A8.189,8.189,0,0,1,411.4,377.02Z" transform="translate(-351.736 -356.953)" fill="#1b9ebc"/>
    <path id="Path_256" data-name="Path 256" d="M455.785,368.477a2.975,2.975,0,0,1-1.579-.363,1.892,1.892,0,0,1-.82-1,4.047,4.047,0,0,1-.243-1.39V355.452H451.2v-1.662h1.943l.395-3.989h1.579v3.989h2.763v1.662h-2.763v9.913a2.093,2.093,0,0,0,.213,1.088,1,1,0,0,0,.911.363h1.64v1.269c-.182.06-.395.151-.638.212a5.62,5.62,0,0,1-.759.151C456.24,368.447,456,368.477,455.785,368.477Z" transform="translate(-383.49 -348.44)" fill="#1b9ebc"/>
    <path id="Path_257" data-name="Path 257" d="M484.2,376.688V362.332h1.579l.152,2.388h.182a5.29,5.29,0,0,1,.577-1.269,3.045,3.045,0,0,1,1.032-1.027,3.105,3.105,0,0,1,1.67-.423,5,5,0,0,1,.7.06c.213.06.395.091.486.121v1.813h-.85a3.863,3.863,0,0,0-1.64.332,3.142,3.142,0,0,0-1.123.967,4.011,4.011,0,0,0-.638,1.42,6.158,6.158,0,0,0-.213,1.692v8.281Z" transform="translate(-406.47 -356.953)" fill="#1b9ebc"/>
    <path id="Path_258" data-name="Path 258" d="M515.1,347.718V345.3h1.974v2.418Zm0,17.317V350.68h1.974v14.355Z" transform="translate(-427.988 -345.3)" fill="#1b9ebc"/>
    <path id="Path_259" data-name="Path 259" d="M540.276,377.02a7.015,7.015,0,0,1-3.492-.816,5.122,5.122,0,0,1-2.156-2.478,12.648,12.648,0,0,1,0-8.462,4.957,4.957,0,0,1,2.186-2.448,7.337,7.337,0,0,1,3.613-.816,6.774,6.774,0,0,1,3.37.786,5.091,5.091,0,0,1,2.065,2.3,8.881,8.881,0,0,1,.7,3.687v1.269H535.934a7.953,7.953,0,0,0,.516,3.083,3.257,3.257,0,0,0,1.488,1.723,4.851,4.851,0,0,0,2.4.544,5.5,5.5,0,0,0,1.822-.272,3.322,3.322,0,0,0,1.275-.756,3.572,3.572,0,0,0,.789-1.118,3.508,3.508,0,0,0,.273-1.36h1.913a4.877,4.877,0,0,1-.395,1.995,4.828,4.828,0,0,1-1.154,1.662,5.156,5.156,0,0,1-1.913,1.118A9.671,9.671,0,0,1,540.276,377.02Zm-4.342-8.553H544.5a6.945,6.945,0,0,0-.3-2.267,4.137,4.137,0,0,0-.85-1.481,3.417,3.417,0,0,0-1.306-.816,5.916,5.916,0,0,0-1.7-.242,4.906,4.906,0,0,0-2.308.514,3.216,3.216,0,0,0-1.458,1.572A7.807,7.807,0,0,0,535.934,368.468Z" transform="translate(-441.08 -356.953)" fill="#1b9ebc"/>
    <path id="Path_260" data-name="Path 260" d="M590.2,377.02a10.548,10.548,0,0,1-2.52-.272,5.077,5.077,0,0,1-1.822-.846,3.407,3.407,0,0,1-1.093-1.36,4.344,4.344,0,0,1-.364-1.844v-.242a.662.662,0,0,1,.03-.242h1.943a.747.747,0,0,0-.03.242v.181a2.712,2.712,0,0,0,.516,1.662,2.807,2.807,0,0,0,1.4.846,8.67,8.67,0,0,0,2.095.242,5.762,5.762,0,0,0,1.822-.272,2.567,2.567,0,0,0,1.275-.846,1.9,1.9,0,0,0,.486-1.33,2,2,0,0,0-.607-1.541,5,5,0,0,0-1.609-.816c-.668-.181-1.336-.393-2.065-.6q-.865-.227-1.731-.544a6.082,6.082,0,0,1-1.548-.725,3.6,3.6,0,0,1-1.123-1.118,3.291,3.291,0,0,1-.425-1.723,3.3,3.3,0,0,1,1.427-2.811,5.2,5.2,0,0,1,1.7-.786A8.948,8.948,0,0,1,590.26,362a8.127,8.127,0,0,1,2.429.332,4.682,4.682,0,0,1,1.64.876,3.474,3.474,0,0,1,.941,1.269,3.363,3.363,0,0,1,.3,1.451v.483H593.63v-.363a2.432,2.432,0,0,0-.273-1.118,2.328,2.328,0,0,0-1-.937,4.975,4.975,0,0,0-2.156-.393,6.536,6.536,0,0,0-1.457.151,2.945,2.945,0,0,0-1.032.423,1.909,1.909,0,0,0-.638.665,1.818,1.818,0,0,0-.213.907,1.5,1.5,0,0,0,.516,1.209,4.242,4.242,0,0,0,1.336.7c.546.181,1.123.363,1.761.574.607.181,1.245.363,1.913.574a13.806,13.806,0,0,1,1.791.725,3.449,3.449,0,0,1,1.306,1.148,3.284,3.284,0,0,1,.486,1.9,4.416,4.416,0,0,1-.425,1.934,4.117,4.117,0,0,1-1.215,1.39,5.574,5.574,0,0,1-1.822.816A8.187,8.187,0,0,1,590.2,377.02Z" transform="translate(-476.246 -356.953)" fill="#1b9ebc"/>
  </g>
</svg>
